# xmcd
#
# Track frame offsets:
#	150
#	8512
#	33040
#	41827
#	45642
#	50667
#	57207
#	62930
#	69710
#	79992
#	84005
#	96005
#	110760
#	126460
#
# Disc length: 1936 seconds
#
# Revision: 6
# Processed by: cddbd v1.5.2PL0 Copyright (c) Steve Scherf et al.
# Submitted via: audiograbber 1.83.01
#
DISCID=ba078e0e
DTITLE=Gert Fröbe - Morgenstern am Abend
DYEAR=2002
DGENRE=Literatur
TTITLE0=Windgespräch
TTITLE1=Das Vermächtnis
TTITLE2=Das Huhn (Vortragskünstler um die Jahrhundertwende)
TTITLE3=Das Huhn (Otto Normalverbraucher)
TTITLE4=Möwenlied
TTITLE5=Es ist Nacht....
TTITLE6=Schauder
TTITLE7=Anmutiger Vortrag
TTITLE8=Gespräch einer Hausschnecke mit sich selbst
TTITLE9=Fisches Nachtgesang
TTITLE10=Die Schildkröte
TTITLE11=Galgenbruders Lied an Sophie, die Henkersmaid
TTITLE12=Die Flamme
TTITLE13=Meeresbrandung
EXTD=
EXTT0=
EXTT1=
EXTT2=
EXTT3=
EXTT4=
EXTT5=
EXTT6=
EXTT7=
EXTT8=
EXTT9=
EXTT10=
EXTT11=
EXTT12=
EXTT13=
PLAYORDER=
